#!OML:ASF F:\VICON\USERDATA\INSTALL\rory3\rory3.ASF
:FULLY-SPECIFIED
:DEGREES
2334
root 0.247146 17.3054 -1.14407 28.8325 4.39796 0.290568
lowerback 27.6003 -0.225306 -3.64069
upperback 9.77797 -1.27514 -1.90558
thorax -4.29265 -0.611017 0.383343
lowerneck -3.62057 -9.69909 -18.4277
upperneck -14.4408 -10.6274 34.1895
head 0.0761935 -5.92431 14.2717
rclavicle 2.38542e-015 -1.35174e-014
rhumerus -40.895 -19.5938 -8.02262
rradius 34.2304
rwrist -8.17847
rhand -18.6872 -4.01279
rfingers 7.12502
rthumb 7.60709 -33.856
lclavicle 2.38542e-015 -1.35174e-014
lhumerus -31.4952 5.41327 23.0031
lradius 39.9146
lwrist 45.5921
lhand -11.2489 31.1777
lfingers 7.12502
lthumb 14.7807 60.6307
rfemur -40.8703 4.339 15.3439
rtibia 25.0229
rfoot -10.8103 -13.7261
rtoes -22.3207
lfemur -44.1054 -8.1724 -13.3043
ltibia 26.9648
lfoot -10.6896 3.0573
ltoes -13.5658
2335
root 0.246698 17.3051 -1.14588 28.7775 4.59635 0.419614
lowerback 27.6493 -0.19041 -3.4318
upperback 9.80928 -1.18733 -2.03365
thorax -4.29243 -0.562598 0.0973758
lowerneck -3.52345 -9.75748 -17.9391
upperneck -14.5566 -10.6958 34.1008
head 0.00125268 -5.9917 14.1362
rclavicle -1.98785e-014 -1.15295e-014
rhumerus -41.228 -19.5284 -8.19919
rradius 34.2321
rwrist -8.08151
rhand -18.6383 -4.0963
rfingers 7.12502
rthumb 7.65423 -33.9378
lclavicle -1.98785e-014 -1.15295e-014
lhumerus -31.0119 4.34506 22.8866
lradius 40.0066
lwrist 46.1351
lhand -11.166 30.8108
lfingers 7.12502
lthumb 14.8606 60.2579
rfemur -40.8204 4.20911 15.2683
rtibia 25.1086
rfoot -10.8563 -13.8556
rtoes -22.2074
lfemur -44.0209 -8.2747 -13.4098
ltibia 26.8387
lfoot -10.6193 2.90862
ltoes -13.4126
2336
root 0.245911 17.3057 -1.14798 28.7862 4.82605 0.567557
lowerback 27.6193 -0.209142 -3.43733
upperback 9.80833 -1.20409 -1.97522
thorax -4.27734 -0.570928 0.169274
lowerneck -3.48623 -9.75117 -17.8782
upperneck -14.551 -10.6902 34.0657
head -0.0138568 -5.99201 14.1124
rclavicle -7.15625e-015 -1.39149e-014
rhumerus -41.0803 -19.1506 -8.44141
rradius 34.2801
rwrist -8.22954
rhand -18.7364 -4.02313
rfingers 7.12502
rthumb 7.55956 -33.868
lclavicle -7.15625e-015 -1.39149e-014
lhumerus -31.1197 3.88264 22.9239
lradius 40.1255
lwrist 46.2872
lhand -11.0622 30.1891
lfingers 7.12502
lthumb 14.9606 59.6288
rfemur -40.8136 4.03429 15.1928
rtibia 25.191
rfoot -11.0086 -13.959
rtoes -21.862
lfemur -43.9949 -8.40334 -13.5068
ltibia 26.6893
lfoot -10.554 2.79362
ltoes -13.5026
2337
root 0.244863 17.3065 -1.149 28.7474 5.00114 0.692751
lowerback 27.6243 -0.24553 -3.61937
upperback 9.8014 -1.27796 -1.75651
thorax -4.2745 -0.61223 0.535076
lowerneck -3.51539 -9.70706 -18.2524
upperneck -14.4301 -10.65 34.0559
head 0.0387779 -5.9433 14.183
rclavicle 2.38542e-015 2.38542e-015
rhumerus -40.4618 -18.7993 -8.57912
rradius 34.2686
rwrist -8.26705
rhand -18.7637 -3.9706
rfingers 7.12502
rthumb 7.53326 -33.8165
lclavicle 2.38542e-015 2.38542e-015
lhumerus -31.8248 4.08904 23.1551
lradius 40.3464
lwrist 45.9428
lhand -10.9592 29.871
lfingers 7.12502
lthumb 15.0598 59.3033
rfemur -40.7794 3.87056 15.1427
rtibia 25.3061
rfoot -11.0922 -14.0236
rtoes -21.8951
lfemur -43.8959 -8.51774 -13.5966
ltibia 26.5251
lfoot -10.4863 2.64989
ltoes -13.0916
2338
root 0.242948 17.3082 -1.15069 28.7138 5.14769 0.782122
lowerback 27.6229 -0.238084 -3.71592
upperback 9.80526 -1.27944 -1.59311
thorax -4.26221 -0.616975 0.769541
lowerneck -3.52387 -9.71921 -18.462
upperneck -14.3973 -10.6745 34.0406
head 0.0693533 -5.94171 14.213
rclavicle 1.51076e-014 1.59028e-014
rhumerus -40.1085 -18.705 -8.59968
rradius 34.2678
rwrist -8.12546
rhand -18.7107 -3.87026
rfingers 7.12502
rthumb 7.58443 -33.7143
lclavicle 1.51076e-014 1.59028e-014
lhumerus -32.2131 4.07788 23.3061
lradius 40.5086
lwrist 45.784
lhand -10.7612 29.9046
lfingers 7.12502
lthumb 15.2505 59.3225
rfemur -40.7532 3.81817 15.0722
rtibia 25.3943
rfoot -11.1991 -14.0922
rtoes -21.6913
lfemur -43.8193 -8.56001 -13.6838
ltibia 26.3956
lfoot -10.3414 2.55405
ltoes -13.2574
2339
root 0.241633 17.3086 -1.15333 28.6849 5.32727 0.928975
lowerback 27.6432 -0.21235 -3.71825
upperback 9.83453 -1.24114 -1.53212
thorax -4.23888 -0.599371 0.826071
lowerneck -3.53801 -9.79145 -18.413
upperneck -14.4759 -10.7586 34.0616
head 0.0732272 -5.99006 14.2006
rclavicle 7.95139e-016 -2.38542e-015
rhumerus -40.1121 -18.7956 -8.56962
rradius 34.3368
rwrist -7.8847
rhand -18.603 -3.86349
rfingers 7.12502
rthumb 7.6884 -33.7037
lclavicle 7.95139e-016 -2.38542e-015
lhumerus -32.1165 3.64691 23.3769
lradius 40.4573
lwrist 45.9467
lhand -10.7215 29.9911
lfingers 7.12502
lthumb 15.2888 59.406
rfemur -40.6799 3.66592 14.993
rtibia 25.4114
rfoot -11.1514 -14.1931
rtoes -22.1204
lfemur -43.7875 -8.6418 -13.8212
ltibia 26.3313
lfoot -10.2758 2.3952
ltoes -13.0855
2340
root 0.242053 17.3077 -1.15434 28.6755 5.5921 0.834602
lowerback 27.5521 -0.240599 -3.49013
upperback 9.89123 -1.20262 -1.39828
thorax -4.1376 -0.581755 0.82907
lowerneck -3.46084 -9.82556 -18.3715
upperneck -14.6703 -10.7763 34.0522
head 0.00811343 -6.01678 14.1986
rclavicle 5.56597e-015 -4.37326e-015
rhumerus -40.0271 -18.9355 -8.54122
rradius 34.356
rwrist -7.59466
rhand -18.5707 -3.65578
rfingers 7.12502
rthumb 7.71951 -33.4949
lclavicle 5.56597e-015 -4.37326e-015
lhumerus -32.162 3.34849 23.4413
lradius 40.4842
lwrist 46.0484
lhand -10.6416 29.8306
lfingers 7.12502
lthumb 15.3657 59.2397
rfemur -40.617 3.57101 15.1761
rtibia 25.3852
rfoot -11.084 -14.3074
rtoes -22.2566
lfemur -43.8258 -8.68688 -13.6672
ltibia 26.3046
lfoot -10.1987 2.28403
ltoes -13.6586
2341
root 0.240934 17.3088 -1.15436 28.6595 5.86148 0.646754
lowerback 27.5114 -0.240557 -3.21869
upperback 9.86454 -1.12322 -1.24271
thorax -4.15511 -0.541882 0.820205
lowerneck -3.28611 -9.82132 -18.359
upperneck -14.7101 -10.7808 34.0561
head -0.0337107 -6.0348 14.2096
rclavicle 2.06736e-014 -1.19271e-015
rhumerus -40.0132 -18.8107 -8.55089
rradius 34.3895
rwrist -7.41415
rhand -18.5756 -3.51244
rfingers 7.12502
rthumb 7.71478 -33.3517
lclavicle 2.06736e-014 -1.19271e-015
lhumerus -32.3341 3.03769 23.4909
lradius 40.6446
lwrist 46.1027
lhand -10.5136 29.5673
lfingers 7.12502
lthumb 15.489 58.9668
rfemur -40.5635 3.59542 15.4158
rtibia 25.3546
rfoot -11.1325 -14.4351
rtoes -21.9351
lfemur -43.8762 -8.68968 -13.4098
ltibia 26.3077
lfoot -10.1679 2.14237
ltoes -13.6467
2342
root 0.239936 17.3105 -1.15583 28.5905 6.1023 0.594258
lowerback 27.6287 -0.192314 -2.93938
upperback 9.87259 -0.993874 -1.20695
thorax -4.21227 -0.474654 0.661939
lowerneck -3.28521 -9.92718 -18.1097
upperneck -14.7718 -10.9162 34.0512
head -0.0316387 -6.11793 14.1385
rclavicle 7.95139e-016 1.31198e-014
rhumerus -40.3016 -18.8333 -8.53846
rradius 34.4045
rwrist -7.16586
rhand -18.7128 -3.39159
rfingers 7.12502
rthumb 7.58239 -33.2357
lclavicle 7.95139e-016 1.31198e-014
lhumerus -32.1164 2.56904 23.5289
lradius 40.7471
lwrist 46.2363
lhand -10.4558 29.3986
lfingers 7.12502
lthumb 15.5446 58.7939
rfemur -40.4543 3.55165 15.5176
rtibia 25.3445
rfoot -11.2096 -14.5214
rtoes -21.2578
lfemur -43.8538 -8.74733 -13.3136
ltibia 26.3065
lfoot -10.1286 2.03517
ltoes -13.3739
2343
root 0.239846 17.3107 -1.15926 28.507 6.33003 0.6542
lowerback 27.7706 -0.155776 -2.80114
upperback 9.90311 -0.910529 -1.13388
thorax -4.24947 -0.432502 0.638695
lowerneck -3.26211 -10.0065 -17.9683
upperneck -14.8933 -11.0046 34.0433
head -0.0552784 -6.17703 14.0995
rclavicle 3.1408e-014 7.95139e-015
rhumerus -40.4906 -18.9065 -8.5111
rradius 34.478
rwrist -6.9104
rhand -18.8491 -3.39449
rfingers 7.12502
rthumb 7.45082 -33.2433
lclavicle 3.1408e-014 7.95139e-015
lhumerus -31.9825 2.03348 23.6508
lradius 40.8754
lwrist 46.4909
lhand -10.4433 29.4917
lfingers 7.12502
lthumb 15.5568 58.886
rfemur -40.3187 3.40011 15.5484
rtibia 25.3439
rfoot -11.1465 -14.6374
rtoes -21.3172
lfemur -43.7902 -8.79289 -13.3772
ltibia 26.2768
lfoot -10.0945 1.82474
ltoes -13.4566
2344
root 0.239028 17.3089 -1.16323 28.4954 6.56099 0.797519
lowerback 27.8039 -0.140303 -2.84117
upperback 9.89535 -0.889471 -0.982021
thorax -4.2707 -0.424413 0.821893
lowerneck -3.07255 -10.013 -18.0412
upperneck -15.0403 -11.0056 34.0339
head -0.124602 -6.19537 14.1288
rclavicle -3.57812e-015 8.94531e-015
rhumerus -40.4611 -18.8056 -8.45051
rradius 34.552
rwrist -6.72831
rhand -18.8566 -3.44837
rfingers 7.12502
rthumb 7.44358 -33.2974
lclavicle -3.57812e-015 8.94531e-015
lhumerus -32.1315 1.70531 23.7906
lradius 40.9862
lwrist 46.5474
lhand -10.1445 29.615
lfingers 7.12502
lthumb 15.8444 58.9867
rfemur -40.2524 3.2069 15.4971
rtibia 25.3473
rfoot -11.0953 -14.7391
rtoes -21.6791
lfemur -43.7791 -8.87641 -13.5063
ltibia 26.1933
lfoot -10.0045 1.61939
ltoes -13.4358
2345
root 0.241266 17.3105 -1.16313 28.4699 6.71505 0.805718
lowerback 27.7982 -0.0929629 -2.72717
upperback 9.89081 -0.792101 -0.857927
thorax -4.27656 -0.377817 0.863076
lowerneck -2.98386 -10.0547 -18.0725
upperneck -15.086 -11.0665 34.0026
head -0.137427 -6.23137 14.1201
rclavicle -7.55382e-015 -2.78299e-015
rhumerus -40.5303 -18.7995 -8.3139
rradius 34.5775
rwrist -6.51264
rhand -18.9512 -3.48249
rfingers 7.12502
rthumb 7.35227 -33.3347
lclavicle -7.55382e-015 -2.78299e-015
lhumerus -32.1881 1.32704 23.9234
lradius 41.0059
lwrist 46.5036
lhand -9.95646 29.4933
lfingers 7.12502
lthumb 16.0256 58.8505
rfemur -40.2047 3.11994 15.5329
rtibia 25.3693
rfoot -11.1591 -14.7786
rtoes -21.8933
lfemur -43.7304 -8.95425 -13.48
ltibia 26.0989
lfoot -9.95843 1.51993
ltoes -13.0478
2346
root 0.246038 17.3152 -1.15755 28.359 6.7362 0.782367
lowerback 27.806 -0.00574503 -2.61986
upperback 9.91622 -0.651701 -0.795662
thorax -4.25754 -0.310424 0.827273
lowerneck -2.86772 -10.1036 -18.0657
upperneck -15.1656 -11.1318 34.0208
head -0.160404 -6.27798 14.1269
rclavicle -8.74653e-015 7.15625e-015
rhumerus -40.6548 -18.8161 -8.2408
rradius 34.669
rwrist -6.45942
rhand -18.9862 -3.44773
rfingers 7.12502
rthumb 7.31843 -33.3012
lclavicle -8.74653e-015 7.15625e-015
lhumerus -32.1911 0.695435 24.075
lradius 40.9787
lwrist 46.6568
lhand -9.98728 29.0735
lfingers 7.12502
lthumb 15.9959 58.4331
rfemur -40.0981 3.14099 15.533
rtibia 25.4329
rfoot -11.2415 -14.7843
rtoes -21.7837
lfemur -43.5434 -8.98076 -13.4873
ltibia 25.9949
lfoot -9.9597 1.53572
ltoes -13.4491
2347
root 0.245715 17.315 -1.16411 28.3771 6.99881 0.888361
lowerback 27.8117 -0.0105228 -2.50075
upperback 9.92856 -0.617987 -0.693582
thorax -4.24827 -0.293436 0.860537
lowerneck -2.74925 -10.1575 -18.0963
upperneck -15.3253 -11.1869 34.0855
head -0.199826 -6.32461 14.1658
rclavicle -7.55382e-015 -6.55989e-015
rhumerus -40.7741 -18.9969 -8.1459
rradius 34.6906
rwrist -6.33081
rhand -18.968 -3.40162
rfingers 7.12502
rthumb 7.33606 -33.2544
lclavicle -7.55382e-015 -6.55989e-015
lhumerus -32.1472 0.230368 24.218
lradius 40.9368
lwrist 46.6218
lhand -9.89489 28.6576
lfingers 7.12502
lthumb 16.0849 58.01
rfemur -40.087 3.05422 15.4536
rtibia 25.4613
rfoot -11.2772 -14.9444
rtoes -21.4102
lfemur -43.5901 -9.06609 -13.5541
ltibia 25.9146
lfoot -9.8672 1.33067
ltoes -13.4227
2348
root 0.241552 17.3111 -1.17448 28.464 7.37148 1.06023
lowerback 27.7914 -0.0709493 -2.37129
upperback 9.93139 -0.650259 -0.603521
thorax -4.23556 -0.307198 0.894451
lowerneck -2.6939 -10.2111 -18.1039
upperneck -15.4398 -11.2411 34.182
head -0.213842 -6.36642 14.2072
rclavicle 5.96354e-016 -6.26172e-015
rhumerus -40.8993 -19.1452 -8.12864
rradius 34.7223
rwrist -6.29832
rhand -19.1208 -3.44184
rfingers 7.12502
rthumb 7.18855 -33.2998
lclavicle 5.96354e-016 -6.26172e-015
lhumerus -32.1275 -0.128929 24.3059
lradius 40.9251
lwrist 46.5074
lhand -9.67347 28.4172
lfingers 7.12502
lthumb 16.2981 57.7523
rfemur -40.1411 2.85778 15.3774
rtibia 25.488
rfoot -11.2343 -15.1791
rtoes -21.4281
lfemur -43.7372 -9.15368 -13.6603
ltibia 25.8308
lfoot -9.67722 0.967916
ltoes -12.9326
